<svg version="1.1" id="Layer_1" xmlns="http://www.w3.org/2000/svg" x="0" y="0" viewBox="0 0 208 76" xml:space="preserve"><style type="text/css">.st0{fill:#033d58}.st1{fill:#ff7c66}</style><path class="st0" d="M96.6 72.6h-2.8l-.5 1.2h-.9l2.3-5.6h.9l2.3 5.6H97l-.4-1.2zm-2.5-.7h2.3l-1.2-2.7-1.1 2.7zM103.4 68.2c1.8 0 2.8 1.1 2.8 2.8 0 1.7-1 2.8-2.8 2.8H101v-5.6h2.4zm1.9 2.8c0-1.2-.6-2-2-2h-1.4v4h1.4c1.4 0 2-.7 2-2zM110.9 73.5c-.5.3-1 .4-1.5.4-1.3 0-2.3-.8-2.3-2.1 0-1.2.9-2.1 2-2.1 1.3 0 2.1 1.1 1.9 2.4h-3.1c.1.6.6 1 1.4 1 .5 0 .9-.1 1.4-.4l.2.8zm-.6-2c-.1-.6-.5-1-1.1-1-.7 0-1.1.4-1.2 1h2.3zM113 73.8h-.8V68h.8v5.8zM115.3 73.8h-.8V68h.8v5.8zM120 69h-1.9v-.8h4.6v.8h-1.8v4.8h-.9V69zM126.3 73.5c-.5.3-1 .4-1.5.4-1.3 0-2.3-.8-2.3-2.1 0-1.2.9-2.1 2-2.1 1.3 0 2.1 1.1 1.9 2.4h-3.1c.1.6.6 1 1.4 1 .5 0 .9-.1 1.4-.4l.2.8zm-.6-2c-.1-.6-.5-1-1.1-1-.7 0-1.1.4-1.2 1h2.3zM129.6 69.7c.5 0 1 .2 1.2.3l-.1.7c-.3-.1-.6-.2-1.1-.2-.8 0-1.4.5-1.4 1.3s.6 1.3 1.4 1.3c.4 0 .8-.1 1.1-.2l.1.7c-.4.1-.8.3-1.2.3-1.3 0-2.3-.8-2.3-2.1.1-1.2 1-2.1 2.3-2.1zM135.6 71.4v2.4h-.8v-2.2c0-.7-.4-1-1-1s-1.1.4-1.1 1v2.2h-.8V68h.8v2.3c.1-.2.5-.6 1.2-.6 1.1 0 1.7.7 1.7 1.7zM140.7 71.4v2.4h-.8v-2.2c0-.7-.4-1-1-1s-1.1.4-1.1 1v2.2h-.8v-4h.8v.5c.1-.2.5-.6 1.2-.6 1.1 0 1.7.7 1.7 1.7zM143.9 69.7c1.2 0 2.1.9 2.1 2.1 0 1.2-.9 2.1-2.1 2.1s-2.1-.9-2.1-2.1c0-1.1.9-2.1 2.1-2.1zm0 3.4c.7 0 1.3-.6 1.3-1.3 0-.7-.5-1.3-1.3-1.3-.7 0-1.3.6-1.3 1.3 0 .7.6 1.3 1.3 1.3zM148 73.8h-.8V68h.8v5.8zM151.2 69.7c1.2 0 2.1.9 2.1 2.1 0 1.2-.9 2.1-2.1 2.1s-2.1-.9-2.1-2.1c0-1.1.9-2.1 2.1-2.1zm0 3.4c.7 0 1.3-.6 1.3-1.3 0-.7-.5-1.3-1.3-1.3-.7 0-1.3.6-1.3 1.3 0 .7.6 1.3 1.3 1.3zM154.2 71.8c0-1.2.9-2 2-2 .7 0 1.1.2 1.4.6v-.5h.8v3.7c0 1.2-.9 2-2.2 2-.6 0-1.2-.1-1.6-.3l.1-.7c.4.2 1 .3 1.5.3.9 0 1.4-.5 1.4-1.2v-.3c-.3.4-.7.6-1.4.6-1.1-.1-2-1-2-2.2zm2.1-1.3c-.8 0-1.3.6-1.3 1.3 0 .7.5 1.3 1.3 1.3s1.3-.6 1.3-1.3c0-.7-.5-1.3-1.3-1.3zM159.8 68.5c0-.3.2-.5.5-.5s.5.2.5.5-.2.5-.5.5-.5-.2-.5-.5zm.1 5.3v-4h.8v4h-.8zM165.6 73.5c-.5.3-1 .4-1.5.4-1.3 0-2.3-.8-2.3-2.1 0-1.2.9-2.1 2-2.1 1.3 0 2.1 1.1 1.9 2.4h-3.1c.1.6.6 1 1.4 1 .5 0 .9-.1 1.4-.4l.2.8zm-.6-2c-.1-.6-.5-1-1.1-1s-1.1.4-1.2 1h2.3zM168.6 71.5c.8.2 1.2.5 1.2 1.2 0 .8-.7 1.2-1.6 1.2-.6 0-1.2-.1-1.5-.3l.1-.7c.4.2.9.3 1.4.3.6 0 .9-.1.9-.5 0-.3-.2-.4-.7-.5l-.6-.1c-.7-.1-1.1-.5-1.1-1.2s.7-1.2 1.6-1.2c.5 0 1 .1 1.3.2l-.1.7c-.3-.1-.8-.2-1.2-.2-.6 0-.9.2-.9.5 0 .2.2.4.7.5l.5.1zM173.3 68.2h2.4c1.1 0 1.8.7 1.8 1.6 0 .4-.2.8-.6 1.1.6.2.9.7.9 1.3 0 .9-.7 1.6-1.8 1.6h-2.7v-5.6zm2.4 2.4c.6 0 .9-.3.9-.8 0-.6-.4-.8-1-.8h-1.5v1.6h1.6zm.3 2.4c.5 0 .9-.3.9-.8s-.4-.9-.9-.9h-1.8V73h1.8zM181.8 69.8h.8v2.4c0 1-.7 1.7-1.8 1.7s-1.8-.7-1.8-1.7v-2.4h.8V72c0 .6.4 1 1 1s1-.4 1-1v-2.2zM185.6 71.5c.8.2 1.2.5 1.2 1.2 0 .8-.7 1.2-1.6 1.2-.6 0-1.2-.1-1.5-.3l.1-.7c.4.2.9.3 1.4.3.6 0 .9-.1.9-.5 0-.3-.2-.4-.7-.5l-.6-.1c-.7-.1-1.1-.5-1.1-1.2s.7-1.2 1.6-1.2c.5 0 1 .1 1.3.2l-.1.7c-.3-.1-.8-.2-1.2-.2-.6 0-.9.2-.9.5 0 .2.2.4.7.5l.5.1zM187.9 68.5c0-.3.2-.5.5-.5s.5.2.5.5-.2.5-.5.5-.5-.2-.5-.5zm.1 5.3v-4h.8v4h-.8zM193.9 71.4v2.4h-.8v-2.2c0-.7-.4-1-1-1s-1.1.4-1.1 1v2.2h-.8v-4h.8v.5c.1-.2.5-.6 1.2-.6 1.1 0 1.7.7 1.7 1.7zM198.8 73.5c-.5.3-1 .4-1.5.4-1.3 0-2.3-.8-2.3-2.1 0-1.2.9-2.1 2-2.1 1.3 0 2.1 1.1 1.9 2.4h-3.1c.1.6.6 1 1.4 1 .5 0 .9-.1 1.4-.4l.2.8zm-.6-2c-.1-.6-.5-1-1.1-1s-1.1.4-1.2 1h2.3zM201.8 71.5c.8.2 1.2.5 1.2 1.2 0 .8-.7 1.2-1.6 1.2-.6 0-1.2-.1-1.5-.3l.1-.7c.4.2.9.3 1.4.3.6 0 .9-.1.9-.5 0-.3-.2-.4-.7-.5l-.6-.1c-.7-.1-1.1-.5-1.1-1.2s.7-1.2 1.6-1.2c.5 0 1 .1 1.3.2l-.1.7c-.3-.1-.8-.2-1.2-.2-.6 0-.9.2-.9.5 0 .2.2.4.7.5l.5.1zM205.8 71.5c.8.2 1.2.5 1.2 1.2 0 .8-.7 1.2-1.6 1.2-.6 0-1.2-.1-1.5-.3l.1-.7c.4.2.9.3 1.4.3.6 0 .9-.1.9-.5 0-.3-.2-.4-.7-.5l-.6-.1c-.7-.1-1.1-.5-1.1-1.2s.7-1.2 1.6-1.2c.5 0 1 .1 1.3.2l-.1.7c-.3-.1-.8-.2-1.2-.2-.6 0-.9.2-.9.5 0 .2.2.4.7.5l.5.1z"/><g><circle class="st1" cx="203.3" cy="10.4" r="4.7"/><path class="st0" d="M64.9 21.4c11.1 0 19.5 8.4 19.5 19.1s-8.3 19.1-19.5 19.1c-11.1 0-19.5-8.4-19.5-19.1s8.4-19.1 19.5-19.1zm0 31.1c6.9 0 11.9-5.2 11.9-12s-5-12-11.9-12S53 33.8 53 40.5s5 12 11.9 12zM108.3 21.4c11.1 0 19.5 8.4 19.5 19.1s-8.3 19.1-19.5 19.1c-11.1 0-19.5-8.4-19.5-19.1s8.4-19.1 19.5-19.1zm0 31.1c6.9 0 11.9-5.2 11.9-12s-5-12-11.9-12-11.9 5.2-11.9 12 5 12 11.9 12zM199.5 58V22.3c0-.5.4-.8.8-.8h5.9c.5 0 .8.4.8.8V58c0 .5-.4.8-.8.8h-5.9c-.4 0-.8-.4-.8-.8zM177.5 21.4c-6.3 0-10.9 3.2-13.1 6.8-2.3-4.2-6.8-6.8-13-6.8-6.4 0-9.9 3.5-11.1 5.4V21c0-.6-.7-1-1.2-.7l-6.1 3.5c-.1.1-.2.2-.2.4V58c0 .5.4.8.8.8h5.9c.5 0 .8-.4.8-.8V38.2c0-6.1 4.5-9.6 9.9-9.6s8.6 3.5 8.6 9.6V58c0 .5.4.8.8.8h5.9c.5 0 .8-.4.8-.8V37.7c.2-5.8 4.6-9.1 9.9-9.1 5.4 0 8.6 3.5 8.6 9.6V58c0 .5.4.8.8.8h5.9c.5 0 .8-.4.8-.8V36.6c.2-8.9-5.1-15.2-14.8-15.2zM21.1 21.4c-5.4 0-10.1 1.9-13.5 5.1V1.3c0-.6-.7-1-1.2-.7L.2 4.1c-.1.1-.2.2-.2.4V58c0 .5.4.8.8.8h5.9c.5 0 .8-.4.8-.8v-3.6c3.4 3.2 8.1 5.1 13.5 5.1 11.1 0 19.5-8.4 19.5-19.1s-8.3-19-19.4-19zm0 31.1c-6.9 0-11.9-5.2-11.9-12s5-12 11.9-12S33 33.7 33 40.5s-5 12-11.9 12z"/>
</g></svg>
