<svg xmlns="http://www.w3.org/2000/svg" x="0px" y="0px" viewBox="0 0 40 40" xml:space="preserve">
  <path fill="#ffffff" d="M19.4,16c-2.4,0-4.6,0.8-6.4,2.4V6.5c0-0.2-0.2-0.4-0.4-0.4c-0.1,0-0.2,0-0.2,0.1L9.6,7.8
  	C9.5,7.8,9.5,7.9,9.5,8v25.2c0,0.2,0.2,0.4,0.4,0.4h2.8c0.2,0,0.4-0.2,0.4-0.4v-1.7c1.7,1.6,4,2.5,6.4,2.4c5.2,0,9.2-3.9,9.2-9
  	S24.6,16,19.4,16 M19.4,30.6c-3,0.1-5.5-2.3-5.6-5.4c0-0.1,0-0.2,0-0.3c-0.1-3,2.3-5.6,5.3-5.6c0.1,0,0.2,0,0.3,0
  	c3-0.1,5.5,2.3,5.6,5.4c0,0.1,0,0.2,0,0.3c0.1,3-2.3,5.6-5.3,5.6C19.6,30.6,19.5,30.6,19.4,30.6"/>
  <path fill="#FF9D8C" d="M30.5,13.8c0,1.2-1,2.2-2.2,2.2c-1.2,0-2.2-1-2.2-2.2c0-1.2,1-2.2,2.2-2.2C29.6,11.6,30.5,12.6,30.5,13.8
  	C30.5,13.8,30.5,13.8,30.5,13.8"/>
</svg>
